#!OML:ASF F:\VICON\USERDATA\INSTALL\rory3\rory3.ASF
:FULLY-SPECIFIED
:DEGREES
45
root -0.1841142230125517 18.137540949073657 13.161363509295942 -3.588296320551868 -2.507792217407117 -6.833665909676553
lfemur -25.162015399723856 3.3960054043895043 -13.03408039300086
ltibia 64.07374869870435
lfoot -6.295146242520896 -0.6793432204705505
ltoes -5.68935742643116
rfemur -3.951775842739968 6.676338499558382 33.69672979299508
rtibia 26.53899239798794
rfoot -17.71725667349733 -7.035476306754269
rtoes 7.2684411113080465
lowerback 10.015789177240979 1.202564744404897 5.456072098244785
upperback 0.5203636395251248 2.3616864498684214 2.3636905065557205
thorax -5.007081779778415 1.0645304437570196 -1.0072053391327969
lowerneck -16.356402044236145 -3.0544081875814997 -1.7633296325137615
upperneck 21.118432261499628 -4.003862450371316 0.9612319928701785
head 9.414488525444838 -1.8978109428406056 0.0957121235281089
lclavicle -2.6177360380226414e-15 2.938165846395476e-16
lhumerus -33.80609620373765 -0.6414015762519714 84.3222557680803
lradius 26.378183224821008
lwrist 6.282381094954836
lhand -26.97813692130425 23.33507098637924
lfingers 7.12502
lthumb -0.3989229984592021 53.31318467018441
rclavicle -2.6177360380226414e-15 2.938165846395476e-16
rhumerus -26.77560391010866 -15.049132464819689 -81.05558271929029
rradius 24.244373413651257
rwrist 4.845251359432046
rhand -17.68187317413138 20.528536611967006
rfingers 7.12502
rthumb 8.57730739771672 -9.270266766745179
46
root -0.176345152551523 18.079302218443846 13.474814679359605 -3.0385475465044394 -3.3007686414938204 -7.536255786191395
lfemur -27.638531529028615 2.4871034334262467 -12.361853143577152
ltibia 54.7927836066319
lfoot -6.974760815791713 2.4308765792822173
ltoes -4.747816182884664
rfemur -1.603278416652909 6.754948960093202 34.52167171445577
rtibia 25.06579006196037
rfoot -19.55907300430567 -7.592028985294781
rtoes 7.051327750790055
lowerback 10.003235486385002 1.574485170916706 6.3598928133832064
upperback 0.4746152444136365 2.955317310834187 2.2868877135839316
thorax -5.001349052521146 1.336177607033291 -1.6729722077620202
lowerneck -16.594568565336893 -3.0618265957135176 -1.6919201212731894
upperneck 20.81972170943495 -4.02123114484448 0.9545947627637199
head 9.338286006685633 -1.900334189220015 0.07766171204151945
lclavicle -2.828480988223938e-15 9.957855635554318e-17
lhumerus -34.92346430334269 -0.08798373885411137 84.24201680165994
lradius 26.161289084269903
lwrist 6.269690569725508
lhand -27.11543069990303 23.002558827551635
lfingers 7.12502
lthumb -0.5315369364825939 52.97709224888911
rclavicle -2.8284809882239384e-15 9.957855635554318e-17
rhumerus -25.620812976861036 -12.620620893125139 -81.83615057411355
rradius 25.659845303977878
rwrist 3.086794587253595
rhand -18.031441673888267 21.582632875892543
rfingers 7.12502
rthumb 8.239932428297568 -8.232920198542235
47
root -0.16640119649609747 18.015273065031813 13.651207830717857 -2.334849909405706 -4.024649817167953 -8.207990850778389
lfemur -28.80856206143378 0.5274431746181532 -11.211096253828915
ltibia 42.88333887191043
lfoot -6.7499027440431085 5.234094328801556
ltoes -4.048847715300672
rfemur 1.0018253254481255 6.821625701058151 35.20302660012364
rtibia 22.959636571091448
rfoot -20.956591728185764 -8.035216728442528
rtoes 6.454937571477796
lowerback 9.817958641290582 1.907570551788278 7.091447233589199
upperback 0.4156510353952604 3.4690232649842794 2.2690004301537154
thorax -4.9259256722341265 1.5743652434930957 -2.1908399531970524
lowerneck -16.873555013230465 -3.0754236183176134 -1.6228618364569527
upperneck 20.52246660435335 -4.044762181381571 0.9466833797643908
head 9.27011799614128 -1.9063986277262692 0.05919212560495056
lclavicle -3.073072892325145e-15 -1.2519849802277242e-16
lhumerus -35.89543602643851 0.644970572492746 84.16205801247594
lradius 25.632483173412098
lwrist 5.797179619132514
lhand -27.183472235590653 22.853767013249907
lfingers 7.12502
lthumb -0.5972536825399405 52.825056002649504
rclavicle -3.073072892325145e-15 -1.2519849802277242e-16
rhumerus -24.539857845112884 -10.792932320873067 -82.31007741291513
rradius 26.88448425811122
rwrist 1.7387241783807328
rhand -18.320453579690547 22.76383477232427
rfingers 7.12502
rthumb 7.9609935823888955 -7.065108219564239
48
root -0.13391724016644296 17.94751050739524 14.432706225328026 -1.5588029729974298 -4.619253564952651 -8.635109530393967
lfemur -28.469416580075258 -2.153112103389524 -9.569789584922194
ltibia 29.934856001010743
lfoot -6.365859151707064 8.030109750906433
ltoes -3.719563094013982
rfemur 4.279746751343737 6.981991005724712 35.819728685387844
rtibia 21.171920821562832
rfoot -22.026165865529755 -8.219384568642926
rtoes 5.0125839032721675
lowerback 9.521050826657232 2.273197999799478 7.73114288215897
upperback 0.36294718903930817 3.999627402859835 2.279483625599676
thorax -4.788048627842165 1.8254637480935962 -2.519680955654485
lowerneck -17.10200381946502 -3.0821339349065946 -1.5297073701022241
upperneck 20.288691463167936 -4.060448005553172 0.9835139885744413
head 9.220771649140664 -1.9091655213821837 0.05547713103775086
lclavicle -2.8318458724036497e-15 9.875690754345649e-17
lhumerus -36.60713605405063 1.7303376070469532 84.04867978676441
lradius 24.8850593646953
lwrist 5.063907097964327
lhand -27.11724398875759 23.155472396130698
lfingers 7.12502
lthumb -0.5332939060736834 53.12480388465998
rclavicle -2.83184587240365e-15 9.875690754345649e-17
rhumerus -23.41759310113487 -9.41792853373952 -82.52126362261815
rradius 27.965143904234253
rwrist 0.9428309082166946
rhand -18.470879529582557 23.697506904769558
rfingers 7.12502
rthumb 7.815799825174815 -6.139356362254732
